<?xml version="1.0" encoding="UTF-8" standalone="no"?>
<!DOCTYPE svg PUBLIC "-//W3C//DTD SVG 1.1//EN"
 "http://www.w3.org/Graphics/SVG/1.1/DTD/svg11.dtd">
<!-- Generated by graphviz version 2.43.0 (0)
 -->
<!-- Title: %3 Pages: 1 -->
<svg width="221pt" height="332pt"
 viewBox="0.00 0.00 220.92 332.00" xmlns="http://www.w3.org/2000/svg" xmlns:xlink="http://www.w3.org/1999/xlink">
<g id="graph0" class="graph" transform="scale(1 1) rotate(0) translate(4 328)">
<title>%3</title>
<polygon fill="white" stroke="transparent" points="-4,4 -4,-328 216.92,-328 216.92,4 -4,4"/>
<!-- 1 -->
<g id="node1" class="node">
<title>1</title>
<ellipse fill="none" stroke="black" cx="80.92" cy="-306" rx="27" ry="18"/>
<text text-anchor="middle" x="80.92" y="-302.3" font-family="Times,serif" font-size="14.00">1</text>
</g>
<!-- 1&#45;&#45;1 -->
<g id="edge1" class="edge">
<title>1&#45;&#45;1</title>
<path fill="none" stroke="black" d="M100.81,-318.43C113.61,-321.68 125.92,-317.53 125.92,-306 125.92,-294.47 113.61,-290.32 100.81,-293.57"/>
</g>
<!-- 2 -->
<g id="node2" class="node">
<title>2</title>
<ellipse fill="none" stroke="black" cx="108.92" cy="-234" rx="27" ry="18"/>
<text text-anchor="middle" x="108.92" y="-230.3" font-family="Times,serif" font-size="14.00">2</text>
</g>
<!-- 1&#45;&#45;2 -->
<g id="edge2" class="edge">
<title>1&#45;&#45;2</title>
<path fill="none" stroke="red" d="M87.55,-288.41C92.02,-277.25 97.88,-262.6 102.33,-251.47"/>
</g>
<!-- 3 -->
<g id="node3" class="node">
<title>3</title>
<ellipse fill="none" stroke="black" cx="39.92" cy="-162" rx="27" ry="18"/>
<text text-anchor="middle" x="39.92" y="-158.3" font-family="Times,serif" font-size="14.00">3</text>
</g>
<!-- 1&#45;&#45;3 -->
<g id="edge3" class="edge">
<title>1&#45;&#45;3</title>
<path fill="none" stroke="red" d="M76.05,-288.15C68.16,-260.82 52.66,-207.14 44.78,-179.82"/>
</g>
<!-- 4 -->
<g id="node4" class="node">
<title>4</title>
<ellipse fill="none" stroke="black" cx="167.92" cy="-90" rx="27" ry="18"/>
<text text-anchor="middle" x="167.92" y="-86.3" font-family="Times,serif" font-size="14.00">4</text>
</g>
<!-- 1&#45;&#45;4 -->
<g id="edge4" class="edge">
<title>1&#45;&#45;4</title>
<path fill="none" stroke="red" d="M104.63,-296.81C124.07,-288.72 150.33,-274.29 162.92,-252 189.18,-205.49 179.04,-138.76 172.19,-107.87"/>
</g>
<!-- 5 -->
<g id="node5" class="node">
<title>5</title>
<ellipse fill="none" stroke="black" cx="92.92" cy="-18" rx="27" ry="18"/>
<text text-anchor="middle" x="92.92" y="-14.3" font-family="Times,serif" font-size="14.00">5</text>
</g>
<!-- 1&#45;&#45;5 -->
<g id="edge5" class="edge">
<title>1&#45;&#45;5</title>
<path fill="none" stroke="red" d="M65.92,-290.9C38.72,-263.54 -14.29,-200.96 3.92,-144 18.52,-98.32 56.59,-55.08 77.9,-33.43"/>
</g>
<!-- 2&#45;&#45;2 -->
<g id="edge6" class="edge">
<title>2&#45;&#45;2</title>
<path fill="none" stroke="black" d="M128.81,-246.43C141.61,-249.68 153.92,-245.53 153.92,-234 153.92,-222.47 141.61,-218.32 128.81,-221.57"/>
</g>
<!-- 2&#45;&#45;3 -->
<g id="edge7" class="edge">
<title>2&#45;&#45;3</title>
<path fill="none" stroke="black" d="M94.62,-218.5C82.78,-206.48 66.03,-189.49 54.2,-177.49"/>
</g>
<!-- 2&#45;&#45;4 -->
<g id="edge8" class="edge">
<title>2&#45;&#45;4</title>
<path fill="none" stroke="black" d="M115.8,-216.43C127.17,-189.07 149.74,-134.75 161.08,-107.46"/>
</g>
<!-- 2&#45;&#45;5 -->
<g id="edge9" class="edge">
<title>2&#45;&#45;5</title>
<path fill="none" stroke="black" d="M107.64,-215.85C104.64,-175.78 97.21,-76.38 94.21,-36.23"/>
</g>
<!-- 3&#45;&#45;3 -->
<g id="edge10" class="edge">
<title>3&#45;&#45;3</title>
<path fill="none" stroke="black" d="M59.81,-174.43C72.61,-177.68 84.92,-173.53 84.92,-162 84.92,-150.47 72.61,-146.32 59.81,-149.57"/>
</g>
<!-- 3&#45;&#45;4 -->
<g id="edge11" class="edge">
<title>3&#45;&#45;4</title>
<path fill="none" stroke="black" d="M60.2,-149.91C84.17,-136.8 123.8,-115.12 147.73,-102.04"/>
</g>
<!-- 3&#45;&#45;5 -->
<g id="edge12" class="edge">
<title>3&#45;&#45;5</title>
<path fill="none" stroke="black" d="M46.1,-144.43C56.26,-117.22 76.37,-63.33 86.61,-35.9"/>
</g>
<!-- 4&#45;&#45;4 -->
<g id="edge13" class="edge">
<title>4&#45;&#45;4</title>
<path fill="none" stroke="black" d="M187.81,-102.43C200.61,-105.68 212.92,-101.53 212.92,-90 212.92,-78.47 200.61,-74.32 187.81,-77.57"/>
</g>
<!-- 4&#45;&#45;5 -->
<g id="edge14" class="edge">
<title>4&#45;&#45;5</title>
<path fill="none" stroke="black" d="M152.74,-74.83C139.73,-62.69 121.08,-45.28 108.07,-33.14"/>
</g>
<!-- 5&#45;&#45;5 -->
<g id="edge15" class="edge">
<title>5&#45;&#45;5</title>
<path fill="none" stroke="black" d="M112.81,-30.43C125.61,-33.68 137.92,-29.53 137.92,-18 137.92,-6.47 125.61,-2.32 112.81,-5.57"/>
</g>
</g>
</svg>
